<svg id="Слой_1" data-name="Слой 1" xmlns="http://www.w3.org/2000/svg" viewBox="0 0 101 101"><title>log_Монтажная область 14</title><path d="M95.87,38.22a11,11,0,0,0-8.32-9h0a10.68,10.68,0,0,0-4.12-.16,13.32,13.32,0,0,0-5.86-7C71.93,10.79,60.79,3.83,49.18,4.34A30.33,30.33,0,0,0,20.39,32.66,30.91,30.91,0,0,0,21.71,44a10.73,10.73,0,0,0-6.84,6.26,8.8,8.8,0,0,0-7.62,2.89A8.91,8.91,0,0,0,14.08,68h21.4L40,75.29l.08.1,2.47,20.29A1.5,1.5,0,0,0,44.05,97H57a1.5,1.5,0,0,0,1.49-1.32l2.38-20.14a1.49,1.49,0,0,0,.2-.24L76.21,51h8.87a10.87,10.87,0,0,0,8.25-3.8A11.17,11.17,0,0,0,95.87,38.22ZM14.08,65a6,6,0,0,1-6-5.15,5.91,5.91,0,0,1,1.45-4.69,5.78,5.78,0,0,1,6-1.71,1.48,1.48,0,0,0,1.17-.13,1.5,1.5,0,0,0,.71-.94,7.71,7.71,0,0,1,5.41-5.56,30.89,30.89,0,0,0,1.82,3.65l9,14.52ZM57.81,76l-.95,8H44.17l-1-8ZM45.38,94l-.85-7h12l-.83,7ZM59,73H49.47a262.11,262.11,0,0,1-9.29-28.22C38.25,37.9,39,27.2,42,18.18a1.5,1.5,0,1,0-2.85-.95C36.5,25.18,34.9,37,37.29,45.59A277.25,277.25,0,0,0,46.23,73h-4.1l-15-24.08A27.61,27.61,0,0,1,49.31,7.34c9.26-.41,18.48,4.79,23.9,13.2A13.14,13.14,0,0,0,71,20.35,13.32,13.32,0,0,0,57.81,32.74a9.1,9.1,0,0,0-3.66-.08,9.21,9.21,0,0,0-7.44,8.05A9.35,9.35,0,0,0,49,48a9.13,9.13,0,0,0,6.78,3H72.68ZM91.05,45.24a7.88,7.88,0,0,1-6,2.76H55.81a6.12,6.12,0,0,1-4.55-2A6.26,6.26,0,0,1,49.69,41a6.19,6.19,0,0,1,5-5.43,6.3,6.3,0,0,1,1.12-.1,6,6,0,0,1,2.83.7,1.5,1.5,0,0,0,2.19-1.47c0-.33-.05-.67-.05-1a10.23,10.23,0,0,1,20.17-2.55,1.5,1.5,0,0,0,1.89,1.07,7.75,7.75,0,0,1,4-.13,8,8,0,0,1,6,6.54A8.17,8.17,0,0,1,91.05,45.24Z" id="id_101" style="fill: rgb(245, 245, 245);"></path></svg>